<svg xmlns="http://www.w3.org/2000/svg" viewBox="0 0 815.23 124.37"><defs><style>.cls-1{fill:#353944;}.cls-2{fill:#4f5560;}.cls-3{fill:#595f68;}.cls-4{fill:#656b77;}.cls-5{fill:#414651;}</style></defs><g id="Layer_2" data-name="Layer 2"><g id="Layer_1-2" data-name="Layer 1"><g id="Layer_2-2" data-name="Layer 2"><g id="Layer_1-2-2" data-name="Layer 1-2"><rect class="cls-1" x="169.68" y="86.26" width="629.82" height="18.46"/><rect class="cls-2" x="587.25" y="56.14" width="59.98" height="21.79"/><rect class="cls-3" x="498.43" y="34.35" width="58.83" height="43.58"/><polygon class="cls-1" points="729.39 89.4 462.55 89.4 466.13 69.61 723.36 69.61 729.39 89.4"/><polygon class="cls-1" points="428.69 89.4 438.3 48.48 449.37 89.4 428.69 89.4"/><path class="cls-1" d="M587.25,22.13V19.85H562V9.56c0-.3-.45-.55-1-.55s-1,.25-1,.55V19.85H556.3v-6c0-.39-.58-.7-1.28-.7s-1.28.31-1.28.7v6h-3.09v2.28h13.63L559,40.54H556.3V35c0-.39-.57-.71-1.28-.71s-1.28.32-1.28.7h0v5.55h-3.09V43h7.65L549,72.71h41.55l-7.65-17.87a.52.52,0,0,0,.15-.35.76.76,0,0,0-.41-.55L579.49,43h7.76V40.54h-8.46l-5.22-18.41ZM572.47,14.3h-7.22L568.87,0Zm6.66,36.59H558.56l1.54-9.8h17.52ZM556.77,62.18l1.34-8.47h21.46L581,63Zm20.34-24.25H560.59l3-19.34h10.49ZM563.64,18.72l2.07-6.23h6.34l2,6.23Z"/><rect class="cls-4" x="493.81" y="21.66" width="50.75" height="19.61"/><rect class="cls-4" x="594.75" y="21.66" width="31.72" height="26.53"/><polygon class="cls-4" points="654.15 62.03 587.25 62.03 584.73 48.19 654.15 48.19 654.15 62.03"/><rect class="cls-1" x="691.07" y="48.19" width="8.08" height="29.74"/><rect class="cls-1" x="51.71" y="57.85" width="25.19" height="15.59"/><path class="cls-4" d="M86.3,52.42c0,4.87-5,8.82-11.1,8.82H53.85c-6.13,0-11.1-4-11.1-8.82h0c0-4.86,5-8.81,11.1-8.81H75.2C81.33,43.61,86.3,47.56,86.3,52.42Z"/><path class="cls-4" d="M51.55,50.51A3.23,3.23,0,0,1,47.76,52L2,39.72C.47,39.3-.37,38,.16,36.72h0A3.21,3.21,0,0,1,4,35.22L49.73,47.5c1.56.42,2.4,1.77,1.87,3Z"/><path class="cls-4" d="M408,68c8.56,5.67,22.46,2.07,32.22-8.74s11.92-25,5.41-32.95Z"/><path class="cls-1" d="M431.48,45.47a4.05,4.05,0,0,1,.31,5.73v0h0a4.08,4.08,0,0,1-5.75.35l-4.33-4a4.08,4.08,0,0,1-.31-5.75h0a4.08,4.08,0,0,1,5.76-.29Z"/><path class="cls-4" d="M620.2,28.4a1.49,1.49,0,0,1-1.48,1.49h0a1.49,1.49,0,0,1-1.48-1.49V13.19a1.49,1.49,0,0,1,1.48-1.49h0a1.49,1.49,0,0,1,1.48,1.49Z"/><path class="cls-1" d="M475.74,71.27a1.46,1.46,0,0,1-1.44,1.46h0a1.45,1.45,0,0,1-1.45-1.45h0V60.35a1.45,1.45,0,0,1,1.45-1.45h0a1.45,1.45,0,0,1,1.45,1.45h0Z"/><path class="cls-1" d="M755.12,95.24A1.77,1.77,0,0,1,753.35,97h0a1.76,1.76,0,0,1-1.76-1.76h0V74.49a1.76,1.76,0,0,1,1.76-1.76h0a1.76,1.76,0,0,1,1.77,1.75h0Z"/><path class="cls-5" d="M.79,69.57l38.09,54.8H803.51L815.23,97s-653.31,6.89-665,0-41-27.4-41-27.4Z"/></g></g></g></g></svg>