<svg xmlns="http://www.w3.org/2000/svg" viewBox="0 0 1400 270.38"><defs><style>.cls-1{fill:#474747;}.cls-2{fill:#757575;}.cls-3{fill:#ffd560;}.cls-4{fill:#383838;}.cls-5{fill:#d1d1d1;}.cls-6{fill:#424242;}.cls-7{fill:#292929;}.cls-8{fill:#333;}</style></defs><g id="Layer_2" data-name="Layer 2"><g id="Ñëîé_1" data-name="Ñëîé 1"><polygon class="cls-1" points="791 21.88 791 53.38 780.5 53.38 780.5 91.88 791 91.88 791 98.88 794.5 98.88 794.5 21.88 791 21.88"/><rect class="cls-1" x="817.21" width="6.16" height="86.33"/><rect class="cls-1" x="808.79" y="11.67" width="22.46" height="6.13"/><rect class="cls-1" x="855.46" y="33.83" width="5.18" height="47.54"/><rect class="cls-1" x="874.61" y="2.04" width="4.68" height="96.83"/><rect class="cls-1" x="877.48" y="38.79" width="7.88" height="56.58"/><polygon class="cls-2" points="1171.72 114.77 1176.33 124.25 1179.53 124.25 1172.83 111.91 1068.79 109.25 881.91 107.55 874.61 122.71 876.94 122.67 882.83 110.2 1068.95 112.05 1171.72 114.77"/><polygon class="cls-2" points="1158.18 124.25 1157.97 112.7 1156.29 112.73 1156.51 124.25 1158.18 124.25"/><polygon class="cls-2" points="1135.9 124.25 1135.68 112.09 1134 112.12 1134.23 124.25 1135.9 124.25"/><polygon class="cls-2" points="1109.54 124.25 1109.29 110.76 1107.61 110.79 1107.86 124.25 1109.54 124.25"/><polygon class="cls-2" points="1081.46 124.25 1081.21 110.55 1079.53 110.58 1079.79 124.25 1081.46 124.25"/><polygon class="cls-2" points="1048.57 124.25 1048.33 111.17 1046.65 111.2 1046.89 124.25 1048.57 124.25"/><rect class="cls-2" x="1010.17" y="109.39" width="1.68" height="14" transform="translate(-1.98 18.71) rotate(-1.06)"/><rect class="cls-2" x="971.66" y="109.15" width="1.68" height="14" transform="translate(-2 18.17) rotate(-1.07)"/><rect class="cls-2" x="935.83" y="109.82" width="1.68" height="14" transform="translate(-2.02 17.56) rotate(-1.07)"/><rect class="cls-2" x="904.32" y="109.38" width="1.68" height="14" transform="translate(-2 16.75) rotate(-1.06)"/><polygon class="cls-2" points="532.29 117.46 635 112.83 821.04 107.52 827.16 119.88 829.5 119.88 821.92 104.85 635.1 110.03 531.13 114.63 524.53 127.34 527.84 127.06 532.29 117.46"/><rect class="cls-2" x="546" y="115.14" width="1.68" height="14"/><rect class="cls-2" x="568.28" y="114.11" width="1.68" height="14"/><rect class="cls-2" x="594.64" y="112.29" width="1.68" height="14"/><rect class="cls-2" x="622.71" y="111.56" width="1.68" height="14"/><rect class="cls-2" x="655.59" y="111.56" width="1.68" height="14"/><rect class="cls-2" x="692.16" y="109.1" width="1.68" height="14"/><rect class="cls-2" x="730.66" y="108.14" width="1.68" height="14"/><rect class="cls-2" x="766.5" y="108.14" width="1.68" height="14"/><rect class="cls-2" x="798" y="107.11" width="1.68" height="14"/><polygon class="cls-3" points="14 172.38 14 224.88 20.23 226.84 29.31 205.41 28.55 194.91 20.78 172.38 14 172.38"/><polygon class="cls-4" points="92.46 105.88 88.38 267.17 151.08 270.23 158.67 240.55 177.04 221.63 171.21 174.4 144.67 105.88 92.46 105.88"/><polygon class="cls-1" points="0 197.75 367.21 140.73 551.4 125.05 703.57 121.59 744.37 93.02 840.02 67.37 924.01 73.2 935.67 86.04 950.25 121.62 1247.75 124.54 1360.33 146.13 1393 171.21 1400 202.71 1388.92 233.92 1316.58 270.38 570.5 270.38 421.17 264.54 179.08 233.63 0 201.54 0 197.75"/><polygon class="cls-1" points="64.97 99.97 111.13 116.38 147 116.38 169.53 110.91 175 102.59 170.19 92.53 145.25 85.31 110.03 83.78 64.97 99.97"/><polygon class="cls-5" points="163.41 172.38 1393.26 172.38 1393 171.21 1383.78 164.13 214.12 164.5 163.41 172.38"/><polygon class="cls-5" points="169.07 168.87 90.82 170.48 91.05 161.44 166.07 161.13 169.07 168.87"/><polygon class="cls-4" points="703.57 121.59 840 119.88 865.81 80.94 831.25 72.19 744.37 93.02 703.57 121.59"/><polygon class="cls-4" points="112.39 179.93 459.38 210.88 1323 210.88 1400 202.71 1388.92 233.92 1316.58 270.38 570.5 270.38 422.37 264.59 179.08 233.63 0 201.54 0 196.88 112.39 179.93"/><polygon class="cls-1" points="171.5 203.41 141.46 193 49 199.79 49 207.38 133.66 221.65 171.5 213.79 171.5 203.41"/><rect class="cls-6" x="603.6" y="128.11" width="46.81" height="28.46"/><rect class="cls-7" x="631.17" y="136.79" width="7.88" height="7.88"/><rect class="cls-7" x="642.54" y="136.79" width="7.88" height="7.88"/><rect class="cls-7" x="654.79" y="136.79" width="7.88" height="7.88"/><rect class="cls-7" x="666.71" y="136.79" width="7.88" height="7.88"/><rect class="cls-7" x="679.29" y="136.79" width="7.88" height="7.88"/><rect class="cls-7" x="691.43" y="136.79" width="7.88" height="7.88"/><rect class="cls-7" x="703.57" y="136.79" width="7.88" height="7.88"/><rect class="cls-7" x="714.95" y="136.79" width="7.88" height="7.88"/><rect class="cls-7" x="727.2" y="136.79" width="7.88" height="7.88"/><rect class="cls-7" x="739.12" y="136.79" width="7.88" height="7.88"/><rect class="cls-7" x="751.7" y="136.79" width="7.88" height="7.88"/><rect class="cls-7" x="763.84" y="136.79" width="7.88" height="7.88"/><rect class="cls-7" x="817.21" y="136.79" width="7.88" height="7.88"/><rect class="cls-7" x="828.59" y="136.79" width="7.88" height="7.88"/><rect class="cls-7" x="840.84" y="136.79" width="7.88" height="7.88"/><rect class="cls-7" x="852.76" y="136.79" width="7.88" height="7.88"/><rect class="cls-7" x="865.34" y="136.79" width="7.88" height="7.88"/><rect class="cls-7" x="877.48" y="136.79" width="7.88" height="7.88"/><rect class="cls-7" x="889.62" y="136.79" width="7.88" height="7.88"/><rect class="cls-7" x="900.99" y="136.79" width="7.88" height="7.88"/><rect class="cls-7" x="913.24" y="136.79" width="7.88" height="7.88"/><rect class="cls-7" x="925.17" y="136.79" width="7.88" height="7.88"/><rect class="cls-7" x="937.74" y="136.79" width="7.88" height="7.88"/><rect class="cls-7" x="949.89" y="136.79" width="7.88" height="7.88"/><rect class="cls-7" x="1010.04" y="148.7" width="7.88" height="7.88"/><rect class="cls-7" x="1021.42" y="148.7" width="7.88" height="7.88"/><rect class="cls-7" x="1033.67" y="148.7" width="7.88" height="7.88"/><rect class="cls-7" x="1045.59" y="148.7" width="7.88" height="7.88"/><rect class="cls-7" x="1058.17" y="148.7" width="7.88" height="7.88"/><rect class="cls-7" x="1070.31" y="148.7" width="7.88" height="7.88"/><rect class="cls-7" x="1082.45" y="148.7" width="7.88" height="7.88"/><rect class="cls-7" x="1093.82" y="148.7" width="7.88" height="7.88"/><rect class="cls-7" x="1106.07" y="148.7" width="7.88" height="7.88"/><rect class="cls-7" x="1117.99" y="148.7" width="7.88" height="7.88"/><rect class="cls-7" x="1130.57" y="148.7" width="7.88" height="7.88"/><rect class="cls-7" x="1142.71" y="148.7" width="7.88" height="7.88"/><rect class="cls-7" x="456.39" y="146.2" width="7.88" height="7.88"/><rect class="cls-7" x="467.76" y="146.2" width="7.88" height="7.88"/><rect class="cls-7" x="480.01" y="146.2" width="7.88" height="7.88"/><rect class="cls-7" x="491.93" y="146.2" width="7.88" height="7.88"/><rect class="cls-7" x="504.51" y="146.2" width="7.88" height="7.88"/><rect class="cls-7" x="516.65" y="146.2" width="7.88" height="7.88"/><rect class="cls-7" x="528.79" y="146.2" width="7.88" height="7.88"/><rect class="cls-7" x="540.17" y="146.2" width="7.88" height="7.88"/><rect class="cls-7" x="552.42" y="146.2" width="7.88" height="7.88"/><rect class="cls-7" x="564.34" y="146.2" width="7.88" height="7.88"/><rect class="cls-7" x="576.92" y="146.2" width="7.88" height="7.88"/><rect class="cls-7" x="589.06" y="146.2" width="7.88" height="7.88"/><rect class="cls-7" x="599.67" y="220.79" width="7.88" height="7.88"/><rect class="cls-7" x="611.04" y="220.79" width="7.88" height="7.88"/><rect class="cls-7" x="623.29" y="220.79" width="7.88" height="7.88"/><rect class="cls-7" x="635.21" y="220.79" width="7.88" height="7.88"/><rect class="cls-7" x="647.79" y="220.79" width="7.88" height="7.88"/><rect class="cls-7" x="659.93" y="220.79" width="7.88" height="7.88"/><rect class="cls-7" x="672.07" y="220.79" width="7.88" height="7.88"/><rect class="cls-7" x="683.45" y="220.79" width="7.88" height="7.88"/><rect class="cls-7" x="695.7" y="220.79" width="7.88" height="7.88"/><rect class="cls-7" x="707.62" y="220.79" width="7.88" height="7.88"/><rect class="cls-7" x="720.2" y="220.79" width="7.88" height="7.88"/><rect class="cls-7" x="732.34" y="220.79" width="7.88" height="7.88"/><rect class="cls-7" x="871.41" y="221.21" width="7.88" height="7.88"/><rect class="cls-7" x="882.78" y="221.21" width="7.88" height="7.88"/><rect class="cls-7" x="895.03" y="221.21" width="7.88" height="7.88"/><rect class="cls-7" x="906.96" y="221.21" width="7.88" height="7.88"/><rect class="cls-7" x="919.53" y="221.21" width="7.88" height="7.88"/><rect class="cls-7" x="931.67" y="221.21" width="7.88" height="7.88"/><rect class="cls-7" x="943.82" y="221.21" width="7.88" height="7.88"/><rect class="cls-7" x="955.19" y="221.21" width="7.88" height="7.88"/><rect class="cls-7" x="967.44" y="221.21" width="7.88" height="7.88"/><rect class="cls-7" x="979.36" y="221.21" width="7.88" height="7.88"/><rect class="cls-7" x="991.94" y="221.21" width="7.88" height="7.88"/><rect class="cls-7" x="1004.08" y="221.21" width="7.88" height="7.88"/><rect class="cls-7" x="840.11" y="84.73" width="7.87" height="7.88"/><rect class="cls-7" x="869.93" y="84.73" width="7.88" height="7.88"/><rect class="cls-8" x="1121.93" y="225.15" width="96.94" height="32.97"/><rect class="cls-6" x="889.62" y="179.93" width="62.07" height="22.2"/><rect class="cls-8" x="452.08" y="216.13" width="68.51" height="25.51"/></g></g></svg>