<svg xmlns="http://www.w3.org/2000/svg" viewBox="0 0 117.48 44.05"><defs><style>.cls-1{fill:#f3f3f3;}.cls-2{fill:#fff;}.cls-3{fill:#5c6d81;}.cls-4{fill:#dfdfde;}.cls-5{fill:#82a94e;}.cls-6{fill:#3c96ba;}.cls-7{fill:#46586f;}</style></defs><g id="Layer_2" data-name="Layer 2"><g id="Layer_1-2" data-name="Layer 1"><polygon class="cls-1" points="26.82 0 26.82 3.52 25.13 3.52 25.13 4.24 26.82 4.24 26.82 6.95 23.85 6.95 23.85 7.67 26.82 7.67 26.82 13.89 27.58 13.89 27.58 7.67 27.58 6.95 27.58 4.24 27.58 3.52 27.58 0 26.82 0"/><polygon class="cls-2" points="58.1 16.56 56.78 15.92 32.27 15.92 17.05 28.96 18.34 28.96 21.42 28.96 22.63 29.73 45.27 29.73 55.88 23.72 71.06 23.04 58.1 16.56"/><polygon class="cls-3" points="24.08 23.93 72.84 23.93 58.1 16.56 32.69 16.56 24.08 23.93"/><polygon class="cls-3" points="17.45 29.73 45.27 29.73 53.32 25.17 22.93 25.17 17.45 29.73"/><polygon class="cls-4" points="62.26 20.46 62.2 20.46 55.88 23.72 57.19 23.66 61.9 21.2 61.9 23.72 62.4 23.72 62.4 20.96 66.16 20.82 66.16 23.72 66.66 23.72 66.66 20.8 70.42 20.66 70.42 23.72 70.93 23.72 70.93 20.64 74.69 20.49 74.69 23.34 75.19 23.34 75.19 20.47 78.95 20.33 78.95 23.16 79.45 23.16 79.45 20.31 83.21 20.16 83.21 22.9 83.71 22.9 83.71 20.14 87.47 20 87.47 22.9 87.97 22.9 87.97 19.98 91.73 19.84 91.73 22.7 92.24 22.7 92.24 19.82 96 19.67 96 22.48 96.5 22.48 96.5 19.65 100.26 19.51 100.26 22.29 100.76 22.29 100.76 19.49 104.52 19.34 104.52 22.17 105.03 22.17 105.03 19.32 108.79 19.18 108.79 22.04 109.29 22.04 109.29 19.16 113.05 19.02 113.05 21.84 113.55 21.84 113.55 19 116.65 18.88 115.39 21.06 115.98 21.03 117.48 18.33 62.26 20.46"/><polygon class="cls-2" points="115.98 21.03 114.7 23.08 78.9 44.05 6.39 44.05 4.66 41.44 13.43 29.73 45.27 29.73 55.88 23.72 115.98 21.03"/><path class="cls-1" d="M78.9,44.05l35.8-21L116,21s-48.65,4.32-85.6,23Z"/><polygon class="cls-4" points="6.39 44.05 78.9 44.05 83.36 41.44 6.07 43.57 6.39 44.05"/><polygon class="cls-4" points="45.27 29.73 41.56 31.65 11.99 31.65 13.43 29.73 45.27 29.73"/><polygon class="cls-5" points="95.67 34.23 10.06 34.23 10.59 33.52 96.88 33.52 95.67 34.23"/><polygon class="cls-1" points="55.88 23.72 115.98 21.03 115.35 22.05 54.02 24.77 55.88 23.72"/><polygon class="cls-2" points="22.63 29.73 13.43 29.73 4.97 41.02 0 35.38 0 33.12 4.03 28.96 21.42 28.96 22.63 29.73"/><path class="cls-6" d="M59,29.28a1.41,1.41,0,1,1-1.41-1.4A1.41,1.41,0,0,1,59,29.28Z"/><path class="cls-6" d="M64,29.28a1.41,1.41,0,1,1-1.4-1.4A1.41,1.41,0,0,1,64,29.28Z"/><path class="cls-6" d="M69,29.28a1.41,1.41,0,1,1-1.4-1.4A1.41,1.41,0,0,1,69,29.28Z"/><path class="cls-6" d="M86.41,29.28A1.41,1.41,0,1,1,85,27.88,1.41,1.41,0,0,1,86.41,29.28Z"/><path class="cls-4" d="M57.61,30.94a1.66,1.66,0,1,1,1.66-1.66A1.66,1.66,0,0,1,57.61,30.94Zm0-2.81a1.15,1.15,0,1,0,1.15,1.15A1.15,1.15,0,0,0,57.61,28.13Z"/><path class="cls-4" d="M62.59,30.94a1.66,1.66,0,1,1,1.66-1.66A1.66,1.66,0,0,1,62.59,30.94Zm0-2.81a1.15,1.15,0,1,0,1.15,1.15A1.15,1.15,0,0,0,62.59,28.13Z"/><path class="cls-4" d="M67.57,30.94a1.66,1.66,0,1,1,1.66-1.66A1.66,1.66,0,0,1,67.57,30.94Zm0-2.81a1.15,1.15,0,1,0,1.15,1.15A1.15,1.15,0,0,0,67.57,28.13Z"/><path class="cls-4" d="M85,30.94a1.66,1.66,0,1,1,1.66-1.66A1.66,1.66,0,0,1,85,30.94Zm0-2.81a1.15,1.15,0,0,0,0,2.3,1.15,1.15,0,1,0,0-2.3Z"/><polygon class="cls-1" points="17.05 28.96 31.17 16.86 29.83 16.86 15.86 28.96 17.05 28.96"/><polygon class="cls-2" points="13.32 28.96 15.86 28.96 29.83 16.86 31.17 16.86 32.27 15.92 19.41 9.94 12.76 11.51 12.76 12.08 19.73 22.25 13.32 28.96"/><polygon class="cls-1" points="14.95 15.28 30.89 15.28 32.27 15.92 31.17 16.86 16.03 16.86 14.95 15.28"/><polygon class="cls-1" points="19.73 22.25 23.61 22.25 25.38 20.71 18.67 20.71 19.73 22.25"/><polygon class="cls-5" points="27.91 13.89 14 13.89 13.54 13.23 26.49 13.23 27.91 13.89"/><polygon class="cls-1" points="30.89 15.28 55.45 15.28 56.78 15.92 32.27 15.92 30.89 15.28"/><polygon class="cls-2" points="55.45 15.28 52.43 13.23 30.01 13.23 27.91 13.89 30.89 15.28 55.45 15.28"/><polygon class="cls-7" points="35.43 16.56 26.82 23.93 28.95 23.93 37.71 16.56 35.43 16.56"/><polygon class="cls-7" points="28.89 25.17 23.57 29.73 25.73 29.73 31.17 25.17 28.89 25.17"/><polygon class="cls-7" points="47.39 25.17 42.07 29.73 44.23 29.73 49.67 25.17 47.39 25.17"/><polygon class="cls-7" points="39.41 25.17 34.08 29.73 34.99 29.73 40.43 25.17 39.41 25.17"/><polygon class="cls-7" points="25.13 25.17 19.8 29.73 20.71 29.73 26.15 25.17 25.13 25.17"/><polygon class="cls-7" points="42.85 25.17 37.52 29.73 38.43 29.73 43.88 25.17 42.85 25.17"/><polygon class="cls-7" points="32.9 25.17 27.58 29.73 31.61 29.73 37.05 25.17 32.9 25.17"/><polygon class="cls-7" points="40.88 16.56 32.27 23.93 36.57 23.93 45.33 16.56 40.88 16.56"/><polygon class="cls-7" points="52.22 16.56 43.6 23.93 47.91 23.93 56.67 16.56 52.22 16.56"/><polygon class="cls-7" points="59.01 17.01 50.93 23.93 54.02 23.93 61.04 18.03 59.01 17.01"/><polygon class="cls-7" points="46.13 16.56 37.52 23.93 38.8 23.93 47.56 16.56 46.13 16.56"/><polygon class="cls-1" points="4.97 41.02 4.7 40.71 13.32 28.96 21.42 28.96 22.63 29.73 13.43 29.73 4.97 41.02"/><polygon class="cls-4" points="0 33.12 0 35.38 9.2 35.38 10.89 33.12 0 33.12"/><polygon class="cls-4" points="8.43 36.4 0.9 36.4 0.51 35.95 8.77 35.95 8.43 36.4"/><polygon class="cls-4" points="7.73 37.34 1.73 37.34 1.34 36.89 8.06 36.89 7.73 37.34"/><polygon class="cls-4" points="7.03 38.27 2.56 38.27 2.16 37.83 7.36 37.83 7.03 38.27"/><polygon class="cls-4" points="6.32 39.21 3.38 39.21 2.99 38.77 6.66 38.77 6.32 39.21"/><polygon class="cls-4" points="5.62 40.15 4.21 40.15 3.81 39.7 5.96 39.7 5.62 40.15"/><rect class="cls-1" x="35.38" y="3.71" width="0.68" height="9.52"/><rect class="cls-1" x="34.08" y="6.33" width="0.77" height="6.9"/><path class="cls-1" d="M31.17,8.47A1.69,1.69,0,0,0,29.35,10v2.26a1.1,1.1,0,0,0,0,.18h.72v.81h2.28v-.81H33a1.1,1.1,0,0,0,0-.18V10A1.69,1.69,0,0,0,31.17,8.47Z"/><polygon class="cls-1" points="14.43 27.8 4.03 27.8 4.03 28.96 13.32 28.96 14.43 27.8"/><polygon class="cls-4" points="14.76 27.45 4.03 27.45 4.03 27.8 14.43 27.8 14.76 27.45"/></g></g></svg>